# xmcd
# 
# Track frame offsets:
#     150
#     20489
#     98928
#     144893
#     208888
#     269564
#     314413
# 
# Disc length: 4701
# 
# Revision: 2
# Processed by: cddbd v1.5.2PL0 Copyright (c) Steve Scherf et al.
# Submitted via: fre:ac v1.0.17
# 
DISCID=65125b07
DTITLE=Dead and Company - 2015.11.18 Nashville
DYEAR=2015
DGENRE=
TTITLE0=Jam
TTITLE1=Playing In the Band
TTITLE2=New Speedway Boogie
TTITLE3=Estimated Prophet
TTITLE4=13 la Lee Blues
TTITLE5=Drums
TTITLE6=Space
EXTD=disc 2 set IIa
EXTT0=
EXTT1=
EXTT2=
EXTT3=
EXTT4=
EXTT5=
EXTT6=
PLAYORDER=
